<svg width="308" height="330" viewBox="0 0 308 330" fill="none" xmlns="http://www.w3.org/2000/svg">
<path d="M157 16L275 109.5L37.5 112.5L157 16Z" fill="black"/>
<path d="M274 327H183V239H187V234H124V239H130V327H33V108H274V327ZM69 290H112V242H69V290ZM197 290H240V242H197V290ZM70 182H112V134H70V182ZM134 182H176V134H134V182ZM197 182H240V134H197V182Z" fill="black"/>
<path d="M4.3255 125.79L154.841 10.1852L161.152 18.4028L10.6372 134.007L4.3255 125.79Z" fill="black"/>
<path d="M156.266 8L307.425 122.76L301.16 131.013L150 16.2529L156.266 8Z" fill="black"/>
</svg>
