<svg width="327" height="327" viewBox="0 0 327 327" fill="none" xmlns="http://www.w3.org/2000/svg">
<path d="M225.287 186.07C248.993 187.494 268.62 205.513 271.814 229.329L282.5 309.001L159.5 325.001L42 309.001L55.1758 227.952C58.945 204.768 78.2867 187.481 101.462 186.071C118.752 200.163 140.175 208.503 163.374 208.503C186.574 208.503 207.997 200.163 225.287 186.07ZM164 2C220.333 2 266 46.5464 266 101.497C266 156.447 220.333 200.994 164 200.994C107.667 200.994 62.0003 156.447 62 101.497C62 46.5464 107.667 2 164 2ZM149.436 76.4756C135.789 66.4483 114.607 72.0908 102.124 89.0791C89.6413 106.068 90.5842 127.969 104.23 137.996C117.877 148.023 139.06 142.38 151.543 125.392C154.654 121.157 156.93 116.616 158.385 112.031C158.955 115.601 160.031 119.197 161.65 122.7C169.89 140.519 189.03 149.204 204.4 142.097C219.771 134.99 225.552 114.782 217.313 96.9629C209.074 79.1431 189.933 70.4583 174.562 77.5654C167.484 80.8384 162.442 86.8903 159.863 94.207C158.676 87.0266 155.182 80.6984 149.436 76.4756ZM140.221 84.6006C142.64 84.6006 144.602 86.5622 144.602 88.9814C144.601 91.4005 142.64 93.3613 140.221 93.3613C137.802 93.3612 135.841 91.4005 135.841 88.9814C135.841 86.5623 137.802 84.6007 140.221 84.6006ZM177.767 84.6006C180.186 84.6006 182.147 86.5622 182.147 88.9814C182.147 91.4005 180.186 93.3613 177.767 93.3613C175.348 93.3612 173.387 91.4005 173.387 88.9814C173.387 86.5623 175.348 84.6007 177.767 84.6006Z" fill="black"/>
</svg>
